<svg version="1.1" id="Layer_1" xmlns="http://www.w3.org/2000/svg" xmlns:xlink="http://www.w3.org/1999/xlink" x="0px" y="0px"
	 width="100%" viewBox="0 0 512 512" enable-background="new 0 0 512 512" xml:space="preserve">
<path fill="#FEFEFE" opacity="1.000000" stroke="none" 
	d="
M312.607758,148.370361 
	C316.188934,154.199585 319.891846,159.555679 322.880035,165.284561 
	C327.995605,175.091858 335.321198,182.346405 344.561432,188.522598 
	C391.813202,220.106018 438.770966,252.129364 485.826263,284.006683 
	C487.444977,285.103271 489.007568,286.282715 491.088470,287.776947 
	C480.556305,294.281158 470.419983,300.578827 460.246918,306.816650 
	C421.174225,330.774902 382.089661,354.713928 343.009705,378.660370 
	C321.629028,391.761444 300.215363,404.809601 278.936584,418.074188 
	C277.374298,419.048065 276.090057,421.513184 275.889099,423.413300 
	C275.437164,427.686157 275.747345,432.039612 275.747345,437.387421 
	C272.036591,435.100830 268.718597,433.376007 265.775024,431.154968 
	C262.668884,428.811218 260.064575,428.570374 257.034088,431.233795 
	C255.328568,432.732788 253.134369,433.675720 250.252686,435.417908 
	C250.252686,431.655243 250.061340,428.597076 250.306320,425.574249 
	C250.552475,422.537048 249.401917,420.808929 246.808838,419.182617 
	C202.064682,391.120270 157.379074,362.964508 112.699783,334.798798 
	C85.463615,317.629211 58.259922,300.408051 30.387999,282.797058 
	C34.986607,279.736298 39.147804,276.900085 43.373867,274.164093 
	C87.728691,245.448410 132.090500,216.743515 176.459473,188.049683 
	C183.991318,183.178741 191.342453,177.968506 199.180847,173.647491 
	C207.906418,168.837387 211.104538,160.015625 215.839447,152.387863 
	C232.038910,126.291176 247.886963,99.976364 263.882141,73.752731 
	C264.219421,73.199768 264.714325,72.742920 265.723877,71.540955 
	C281.425201,97.278366 296.916595,122.671646 312.607758,148.370361 
z"/>
</svg>